<svg styles="aspect-ratio: 1/1;" viewBox="0 0 24 24" fill="none"
    xmlns="http://www.w3.org/2000/svg">
    <path d="M4.97561 6C4.4368 6 4 6.43678 4 6.97561C4 7.51444 4.4368 7.95122 4.97561 7.95122H19.0244C19.5632 7.95122 20 7.51444 20 6.97561C20 6.43678 19.5632 6 19.0244 6H4.97561ZM4.97561 11.2683C4.4368 11.2683 4 11.7051 4 12.2439C4 12.7827 4.4368 13.2195 4.97561 13.2195H19.0244C19.5632 13.2195 20 12.7827 20 12.2439C20 11.7051 19.5632 11.2683 19.0244 11.2683H4.97561ZM4.97561 16.5366C4.4368 16.5366 4 16.9734 4 17.5122C4 18.051 4.4368 18.4878 4.97561 18.4878H19.0244C19.5632 18.4878 20 18.051 20 17.5122C20 16.9734 19.5632 16.5366 19.0244 16.5366H4.97561Z" fill="currentColor" />
</svg>
