<svg width="24" height="24" viewBox="0 0 24 24" fill="none"
    xmlns="http://www.w3.org/2000/svg">
    <path d="M15.9962 13.9345L15.9968 13.9805C15.9978 14.6176 15.6924 15.2318 15.1411 15.7012L15.143 15.6992C14.5688 16.1934 13.7921 16.5159 12.9466 16.6113L12.9267 16.6133V17.7935C12.9267 17.8482 12.8989 17.9008 12.8493 17.9395C12.7997 17.9782 12.7325 18 12.6624 18H11.4957C11.4231 17.9994 11.3538 17.9765 11.3025 17.9364C11.2512 17.8964 11.222 17.8422 11.2211 17.7855V16.6133C10.8355 16.5731 10.4565 16.5003 10.0909 16.3963L10.1287 16.4058C9.58253 16.2631 9.07011 16.0512 8.61186 15.7787L8.62466 15.7862C8.48469 15.7071 8.35031 15.6222 8.2221 15.5317L8.22658 15.5347C8.15533 15.4814 8.10541 15.4413 8.07682 15.4147C8.03055 15.3787 8.00323 15.3305 8.00027 15.2796C7.99731 15.2287 8.01891 15.1787 8.06082 15.1396L8.94274 14.236C8.96619 14.2124 8.99588 14.1931 9.02979 14.1793C9.0637 14.1654 9.10103 14.1575 9.13922 14.156C9.17717 14.1506 9.21694 14.1533 9.25304 14.164C9.28913 14.1747 9.32081 14.1928 9.34466 14.2165L9.36194 14.23C9.9406 14.644 10.6488 14.9314 11.4151 15.0631L11.4445 15.0676C11.6352 15.1016 11.8541 15.1211 12.0787 15.1211L12.1184 15.1216C12.5606 15.1216 12.9702 15.0136 13.3075 14.8296L13.3005 14.8331C13.4706 14.7432 13.6084 14.6208 13.7007 14.4775C13.793 14.3342 13.8368 14.1748 13.8278 14.0145V14.0165C13.8278 13.885 13.7798 13.7625 13.6973 13.659L13.6992 13.662C13.6212 13.5587 13.5249 13.4646 13.4131 13.3824C13.2644 13.2849 13.1001 13.2016 12.9254 13.1354L12.9114 13.1304C12.6827 13.039 12.4949 12.9675 12.3482 12.9159C12.2014 12.8642 11.9729 12.7917 11.6627 12.6983C11.44 12.627 11.2642 12.5712 11.1354 12.5308C11.0065 12.4905 10.8307 12.4313 10.608 12.3533C10.3853 12.2753 10.2067 12.2061 10.0723 12.1458C9.93793 12.0854 9.77644 12.0063 9.58786 11.9082C9.42265 11.8251 9.26812 11.7296 9.12642 11.6232C8.99781 11.5215 8.87669 11.4152 8.76226 11.3037L8.75394 11.2957C8.63274 11.1809 8.53218 11.0537 8.45506 10.9176L8.44994 10.9071C8.3756 10.769 8.31672 10.6261 8.27394 10.4801L8.26946 10.4621C8.22049 10.2944 8.19602 10.123 8.1965 9.95099V9.92399C8.1965 9.29891 8.51714 8.73184 9.03746 8.31879C9.61743 7.84767 10.3747 7.53464 11.1994 7.42468L11.2224 7.42218V6.21253C11.2224 6.15402 11.2538 6.10101 11.3037 6.06351C11.3284 6.04343 11.358 6.02745 11.3907 6.01653C11.4235 6.00562 11.4588 6 11.4944 6H12.6637C12.8096 6 12.928 6.09251 12.928 6.20653V7.39317C13.28 7.42218 13.6013 7.47668 13.9091 7.55469L13.8752 7.54719C14.169 7.6172 14.416 7.69371 14.6534 7.78272L14.6202 7.77172C14.8301 7.85323 15.0086 7.93674 15.1776 8.02975L15.1648 8.02275C15.3355 8.11676 15.4468 8.18144 15.4989 8.21678C15.5509 8.25212 15.5938 8.28329 15.6275 8.31029C15.6736 8.34126 15.7033 8.38442 15.7111 8.43149C15.7189 8.47856 15.7042 8.52622 15.6698 8.56532L14.9779 9.54294C14.9606 9.57301 14.9332 9.59884 14.8986 9.61769C14.864 9.63654 14.8235 9.64769 14.7814 9.64996C14.7408 9.65656 14.6981 9.65576 14.6579 9.6476C14.6178 9.63945 14.5805 9.62417 14.5491 9.60295C14.5321 9.58962 14.4913 9.56295 14.4256 9.52294C14.3599 9.48294 14.2485 9.42376 14.0915 9.34542C13.9392 9.26912 13.7808 9.20047 13.6173 9.13989L13.5904 9.13089C13.3934 9.06012 13.1886 9.00338 12.9786 8.96137L12.9517 8.95687C12.7131 8.90584 12.4669 8.87994 12.2195 8.87986C11.7456 8.8629 11.2765 8.96527 10.8826 9.1719L10.8909 9.1679C10.673 9.28101 10.5109 9.44867 10.4311 9.64333C10.3513 9.83799 10.3586 10.0481 10.4519 10.239L10.4493 10.233C10.5082 10.343 10.5939 10.4361 10.7015 10.5106L10.7027 10.5111C10.8058 10.5866 10.9159 10.6591 11.0311 10.7266L11.0413 10.7321C11.1789 10.8061 11.337 10.8756 11.5027 10.9336L11.5219 10.9396C11.7361 11.0176 11.9089 11.078 12.0403 11.1206C12.1717 11.1633 12.3718 11.2247 12.6406 11.3047C12.9436 11.394 13.175 11.4643 13.335 11.5157C13.495 11.567 13.7122 11.6452 13.9866 11.7502C14.2177 11.835 14.4404 11.9331 14.6528 12.0438L14.6342 12.0348C14.8326 12.1448 15.0054 12.2548 15.1699 12.3723L15.1661 12.3693C15.3434 12.4903 15.4944 12.6303 15.6147 12.7868L15.6205 12.7948C15.7267 12.9414 15.8182 13.1119 15.8848 13.2904L15.8906 13.3074C15.9603 13.4899 16 13.7 16 13.917V13.938L15.9962 13.9345Z" fill="currentColor"/>
    <path fill-rule="evenodd" clip-rule="evenodd" d="M12 20.4C16.6392 20.4 20.4 16.6392 20.4 12C20.4 7.36081 16.6392 3.6 12 3.6C7.36081 3.6 3.6 7.36081 3.6 12C3.6 16.6392 7.36081 20.4 12 20.4ZM12 22C17.5228 22 22 17.5228 22 12C22 6.47715 17.5228 2 12 2C6.47715 2 2 6.47715 2 12C2 17.5228 6.47715 22 12 22Z" fill="currentColor"/>
</svg>
