<svg width="22" height="21" viewBox="0 0 22 21" fill="none"
    xmlns="http://www.w3.org/2000/svg">
    <path d="M11.9841 0.749157C12.3505 0.807791 12.6972 0.948013 13.0085 1.19703C13.5184 1.60496 13.7612 2.11917 13.9489 2.86989C13.9969 3.06207 14.0801 3.28611 14.184 3.50356C14.4223 3.60489 14.6555 3.71752 14.8828 3.841C15.1072 3.78557 15.3226 3.71195 15.4947 3.63186C16.7052 3.06832 17.7207 3.09793 18.5523 3.99489C18.6226 4.07076 18.6646 4.12102 18.756 4.23386L19.2954 4.89998C19.4405 5.07913 19.5025 5.16076 19.594 5.31306C20.187 6.3 19.9558 7.21916 19.2062 8.21518C19.0818 8.38044 18.9548 8.59678 18.8486 8.82438C18.9156 9.06655 18.9714 9.31213 19.0158 9.56045C19.2067 9.71341 19.4097 9.84744 19.5889 9.93891C20.2782 10.2907 20.7246 10.6429 21.0074 11.2315C21.18 11.5908 21.2386 11.9602 21.2133 12.3304C21.1999 12.5261 21.1788 12.6352 21.1224 12.8795L20.9296 13.7147C20.8732 13.9589 20.8444 14.0662 20.7706 14.248C20.631 14.5919 20.4164 14.8981 20.1038 15.1454C19.5916 15.5505 19.0359 15.6714 18.2622 15.6854C18.0665 15.6889 17.8327 15.7189 17.6 15.7701C17.4488 15.9791 17.2877 16.1808 17.1174 16.3745C17.1203 16.6096 17.1436 16.8405 17.1837 17.0294C17.3441 17.7864 17.3512 18.3551 17.0718 18.9452C16.9012 19.3055 16.651 19.5835 16.3474 19.7968C16.1869 19.9096 16.0888 19.9618 15.8635 20.0717L15.0931 20.4475C14.8677 20.5574 14.7662 20.6025 14.5785 20.6596C14.2235 20.7675 13.8504 20.7935 13.4615 20.7061C12.8243 20.563 12.3807 20.2073 11.8829 19.6148C11.7513 19.4582 11.5715 19.2877 11.376 19.1342C11.2511 19.1399 11.1257 19.1428 11.0001 19.1428C10.8744 19.1428 10.7491 19.1399 10.6241 19.1342C10.4286 19.2877 10.2488 19.4582 10.1172 19.6148C9.61946 20.2073 9.17579 20.563 8.53867 20.7061C8.14974 20.7935 7.77669 20.7675 7.42161 20.6596C7.23393 20.6025 7.1324 20.5574 6.90708 20.4475L6.13669 20.0717C6.06895 20.0388 6.02694 20.0179 5.97786 19.9924C4.85367 19.407 4.52411 18.4092 4.81648 17.0294C4.85651 16.8405 4.87987 16.6096 4.88279 16.3745C4.71247 16.1808 4.55139 15.9791 4.40013 15.7701C4.16748 15.7189 3.93361 15.6889 3.7379 15.6854C2.9642 15.6714 2.40854 15.5505 1.89637 15.1454C1.58371 14.8981 1.3691 14.5919 1.22954 14.248C1.15577 14.0662 1.12696 13.9589 1.07056 13.7147L0.877747 12.8795C0.818042 12.6209 0.796046 12.5055 0.784721 12.296C0.763489 11.9032 0.838664 11.5129 1.03806 11.1426C1.32859 10.6031 1.75862 10.2719 2.41122 9.93891C2.59047 9.84744 2.79341 9.71341 2.98435 9.56045C3.02871 9.31213 3.08452 9.06655 3.15153 8.82438C3.0453 8.59678 2.91832 8.38044 2.79395 8.21518C2.04439 7.21916 1.81315 6.3 2.40617 5.31306C2.49769 5.16076 2.55966 5.07913 2.70473 4.89998L3.24415 4.23386C3.33553 4.12102 3.37752 4.07076 3.44786 3.99489C4.27946 3.09793 5.29495 3.06832 6.50545 3.63186C6.67751 3.71195 6.89297 3.78557 7.11733 3.841C7.34464 3.71752 7.57783 3.60489 7.81617 3.50356C7.92008 3.28611 8.00321 3.06207 8.05126 2.86989C8.23894 2.11917 8.48176 1.60496 8.99167 1.19703C9.30294 0.948013 9.6496 0.807791 10.0161 0.749157C10.171 0.724363 10.2731 0.716888 10.4361 0.71489L11.4286 0.714233C11.6793 0.714233 11.7904 0.718164 11.9841 0.749157ZM11.5021 2.42869L10.5715 2.42852C10.1429 2.42852 9.92864 2.42852 9.71436 3.28566C9.59541 3.76144 9.34443 4.36926 8.99804 4.88924C8.44725 5.06958 7.92924 5.32231 7.45526 5.63619C6.84089 5.57566 6.2209 5.39034 5.78194 5.18598C4.98096 4.8131 4.84611 4.97963 4.5764 5.31269L4.03698 5.97882C3.76727 6.31188 3.63242 6.47841 4.16369 7.18436C4.46271 7.5817 4.7818 8.16998 4.96685 8.77526C4.77737 9.28896 4.65161 9.83351 4.59919 10.3993C4.16923 10.8573 3.62979 11.2417 3.19045 11.4659C2.40348 11.8675 2.45169 12.0763 2.5481 12.4938L2.74091 13.329C2.83732 13.7466 2.88552 13.9554 3.7689 13.9714C4.25732 13.9802 4.90287 14.0872 5.48565 14.306C5.78165 14.7987 6.14181 15.2484 6.55455 15.6437C6.63543 16.2587 6.59442 16.9087 6.49353 17.3848C6.31038 18.2491 6.50298 18.3431 6.88818 18.5309L7.65857 18.9067C8.04377 19.0946 8.23637 19.1885 8.80472 18.512C9.1234 18.1327 9.62226 17.6914 10.168 17.3752C10.4404 17.4104 10.7181 17.4285 11.0001 17.4285C11.282 17.4285 11.5598 17.4104 11.8322 17.3752C12.3779 17.6914 12.8767 18.1327 13.1954 18.512C13.7638 19.1885 13.9564 19.0946 14.3416 18.9067L15.112 18.5309C15.4972 18.3431 15.6898 18.2491 15.5066 17.3848C15.4057 16.9087 15.3647 16.2587 15.4456 15.6437C15.8583 15.2484 16.2185 14.7987 16.5145 14.306C17.0973 14.0872 17.7428 13.9802 18.2312 13.9714C19.1146 13.9554 19.1628 13.7466 19.2592 13.329L19.452 12.4938C19.5485 12.0763 19.5967 11.8675 18.8097 11.4659C18.3703 11.2417 17.8309 10.8573 17.401 10.3993C17.3485 9.83351 17.2228 9.28896 17.0333 8.77526C17.2183 8.16998 17.5374 7.5817 17.8365 7.18436C18.3677 6.47841 18.2329 6.31188 17.9632 5.97882L17.4237 5.31269C17.154 4.97963 17.0192 4.8131 16.2182 5.18598C15.7792 5.39034 15.1593 5.57566 14.5449 5.63619C14.0709 5.32231 13.5529 5.06958 13.0021 4.88924C12.6557 4.36926 12.4047 3.76144 12.2858 3.28566C12.0841 2.47894 11.8824 2.43148 11.5021 2.42869ZM11.0001 7.1428C13.1303 7.1428 14.8572 8.86971 14.8572 10.9999C14.8572 13.1302 13.1303 14.8571 11.0001 14.8571C8.86983 14.8571 7.14293 13.1302 7.14293 10.9999C7.14293 8.86971 8.86983 7.1428 11.0001 7.1428ZM11.0001 8.85709C9.8166 8.85709 8.85721 9.81648 8.85721 10.9999C8.85721 12.1834 9.8166 13.1428 11.0001 13.1428C12.1835 13.1428 13.1429 12.1834 13.1429 10.9999C13.1429 9.81648 12.1835 8.85709 11.0001 8.85709Z" fill="currentColor"></path>
</svg>