<svg width="24" height="24" viewBox="0 0 24 24" fill="none"
    xmlns="http://www.w3.org/2000/svg">
    <path d="M3.00183 16.2032L7.57299 11.9177C8.77791 10.7881 10.6692 10.8449 11.8042 12.0447L18.5018 19.1251M14.9999 15.1253L17.1967 13.2944C17.9913 12.6321 19.16 12.6851 19.8915 13.4166L20.9999 14.5252M21.0018 16V8C21.0018 5.79086 19.211 4 17.0018 4L7.00183 4C4.79269 4 3.00183 5.79086 3.00183 8L3.00183 16C3.00183 18.2091 4.79269 20 7.00183 20H17.0018C19.211 20 21.0018 18.2091 21.0018 16ZM17.3143 9.1255C17.3143 10.2301 16.4189 11.1255 15.3143 11.1255C14.2098 11.1255 13.3143 10.2301 13.3143 9.1255C13.3143 8.02093 14.2098 7.1255 15.3143 7.1255C16.4189 7.1255 17.3143 8.02093 17.3143 9.1255Z" stroke="currentColor" stroke-width="1.6" stroke-linecap="round"/>
</svg>
