<svg width="24" height="24" viewBox="0 0 24 24" fill="none"
    xmlns="http://www.w3.org/2000/svg">
    <mask id="path-1-inside-1_282_350" fill="white">
        <path fill-rule="evenodd" clip-rule="evenodd" d="M16.8427 10.4442C18.0357 11.1384 18.0357 12.8616 16.8427 13.5558L10.3777 17.3176C9.1777 18.0159 7.67241 17.1502 7.67241 15.7618L7.67241 8.23817C7.67241 6.84982 9.1777 5.98414 10.3777 6.68238L16.8427 10.4442ZM16.038 12.1729C16.1706 12.0957 16.1706 11.9043 16.038 11.8271L9.573 8.06531C9.43967 7.98772 9.27241 8.08391 9.27241 8.23817L9.27241 15.7618C9.27241 15.9161 9.43967 16.0123 9.573 15.9347L16.038 12.1729Z"/>
        <path fill-rule="evenodd" clip-rule="evenodd" d="M12 20.4C16.6392 20.4 20.4 16.6392 20.4 12C20.4 7.36081 16.6392 3.6 12 3.6C7.36081 3.6 3.6 7.36081 3.6 12C3.6 16.6392 7.36081 20.4 12 20.4ZM12 22C17.5228 22 22 17.5228 22 12C22 6.47715 17.5228 2 12 2C6.47715 2 2 6.47715 2 12C2 17.5228 6.47715 22 12 22Z"/>
    </mask>
    <path fill-rule="evenodd" clip-rule="evenodd" d="M16.8427 10.4442C18.0357 11.1384 18.0357 12.8616 16.8427 13.5558L10.3777 17.3176C9.1777 18.0159 7.67241 17.1502 7.67241 15.7618L7.67241 8.23817C7.67241 6.84982 9.1777 5.98414 10.3777 6.68238L16.8427 10.4442ZM16.038 12.1729C16.1706 12.0957 16.1706 11.9043 16.038 11.8271L9.573 8.06531C9.43967 7.98772 9.27241 8.08391 9.27241 8.23817L9.27241 15.7618C9.27241 15.9161 9.43967 16.0123 9.573 15.9347L16.038 12.1729Z" fill="black"/>
    <path fill-rule="evenodd" clip-rule="evenodd" d="M12 20.4C16.6392 20.4 20.4 16.6392 20.4 12C20.4 7.36081 16.6392 3.6 12 3.6C7.36081 3.6 3.6 7.36081 3.6 12C3.6 16.6392 7.36081 20.4 12 20.4ZM12 22C17.5228 22 22 17.5228 22 12C22 6.47715 17.5228 2 12 2C6.47715 2 2 6.47715 2 12C2 17.5228 6.47715 22 12 22Z" fill="black"/>
    <path d="M16.8427 13.5558L16.038 12.1729L16.8427 13.5558ZM16.8427 10.4442L17.6474 9.06129L16.8427 10.4442ZM10.3777 17.3176L11.1824 18.7005H11.1824L10.3777 17.3176ZM7.67241 15.7618H6.07241H7.67241ZM7.67241 8.23817H9.27241H7.67241ZM10.3777 6.68238L9.573 8.06531L10.3777 6.68238ZM16.038 11.8271L16.8427 10.4442H16.8427L16.038 11.8271ZM16.038 12.1729L15.2333 10.7899V10.7899L16.038 12.1729ZM9.573 8.06531L10.3777 6.68238L10.3777 6.68238L9.573 8.06531ZM9.27241 8.23817H10.8724H9.27241ZM9.27241 15.7618H7.67241H9.27241ZM9.573 15.9347L10.3777 17.3176L10.3777 17.3176L9.573 15.9347ZM17.6474 14.9387C19.9008 13.6275 19.9008 10.3725 17.6474 9.06129L16.038 11.8271C16.1706 11.9043 16.1706 12.0957 16.038 12.1729L17.6474 14.9387ZM11.1824 18.7005L17.6474 14.9387L16.038 12.1729L9.573 15.9347L11.1824 18.7005ZM6.07241 15.7618C6.07241 18.3843 8.91573 20.0194 11.1824 18.7005L9.573 15.9347C9.52883 15.9604 9.497 15.9649 9.4728 15.9645C9.44367 15.9641 9.40817 15.9556 9.37271 15.9352C9.33724 15.9148 9.31206 15.8884 9.29703 15.8634C9.28454 15.8427 9.27241 15.8129 9.27241 15.7618H6.07241ZM6.07241 8.23817L6.07241 15.7618H9.27241L9.27241 8.23817H6.07241ZM11.1824 5.29946C8.91572 3.98055 6.07241 5.61574 6.07241 8.23817H9.27241C9.27241 8.18707 9.28454 8.15731 9.29703 8.13657C9.31206 8.11161 9.33724 8.08519 9.37271 8.0648C9.40817 8.0444 9.44367 8.03592 9.4728 8.03549C9.497 8.03512 9.52883 8.0396 9.573 8.06531L11.1824 5.29946ZM17.6474 9.06129L11.1824 5.29946L9.573 8.06531L16.038 11.8271L17.6474 9.06129ZM15.2333 13.2101C14.3055 12.6702 14.3055 11.3298 15.2333 10.7899L16.8427 13.5558C18.0357 12.8616 18.0357 11.1384 16.8427 10.4442L15.2333 13.2101ZM8.76831 9.44823L15.2333 13.2101L16.8427 10.4442L10.3777 6.68238L8.76831 9.44823ZM10.8724 8.23817C10.8724 9.318 9.70164 9.99131 8.76831 9.44823L10.3777 6.68238C9.1777 5.98414 7.67241 6.84982 7.67241 8.23817H10.8724ZM10.8724 15.7618L10.8724 8.23817H7.67241L7.67241 15.7618H10.8724ZM8.76831 14.5518C9.70164 14.0087 10.8724 14.682 10.8724 15.7618H7.67241C7.67241 17.1502 9.17769 18.0159 10.3777 17.3176L8.76831 14.5518ZM15.2333 10.7899L8.76831 14.5518L10.3777 17.3176L16.8427 13.5558L15.2333 10.7899ZM18.8 12C18.8 15.7555 15.7555 18.8 12 18.8V22C17.5228 22 22 17.5228 22 12H18.8ZM12 5.2C15.7555 5.2 18.8 8.24446 18.8 12H22C22 6.47715 17.5228 2 12 2V5.2ZM5.2 12C5.2 8.24446 8.24446 5.2 12 5.2V2C6.47715 2 2 6.47715 2 12H5.2ZM12 18.8C8.24446 18.8 5.2 15.7555 5.2 12H2C2 17.5228 6.47715 22 12 22V18.8ZM20.4 12C20.4 16.6392 16.6392 20.4 12 20.4V23.6C18.4065 23.6 23.6 18.4065 23.6 12H20.4ZM12 3.6C16.6392 3.6 20.4 7.36081 20.4 12H23.6C23.6 5.5935 18.4065 0.4 12 0.4V3.6ZM3.6 12C3.6 7.36081 7.36081 3.6 12 3.6V0.4C5.5935 0.4 0.4 5.5935 0.4 12H3.6ZM12 20.4C7.36081 20.4 3.6 16.6392 3.6 12H0.4C0.4 18.4065 5.5935 23.6 12 23.6V20.4Z" fill="currentColor" mask="url(#path-1-inside-1_282_350)"/>
</svg>
